<svg width="19" height="21" viewBox="0 0 19 21" fill="none" xmlns="http://www.w3.org/2000/svg">
<path d="M18.416 7.13862C18.317 7.19636 15.9609 8.41485 15.9609 11.1165C16.072 14.1976 18.9342 15.2782 18.9833 15.2782C18.9342 15.3359 18.5512 16.7501 17.4166 18.2325C16.5162 19.5095 15.5167 20.797 13.9991 20.797C12.5555 20.797 12.0373 19.9459 10.3716 19.9459C8.58277 19.9459 8.07662 20.797 6.70705 20.797C5.18941 20.797 4.11596 19.4405 3.16643 18.1756C1.93285 16.5199 0.884343 13.9217 0.847327 11.427C0.822382 10.105 1.09437 8.80552 1.78479 7.70175C2.75926 6.16083 4.49899 5.1148 6.39885 5.08031C7.85453 5.03457 9.15007 6.01161 10.0384 6.01161C10.8898 6.01161 12.4815 5.08031 14.2824 5.08031C15.0597 5.08106 17.1326 5.29926 18.416 7.13862ZM9.91533 4.81636C9.65622 3.60912 10.3716 2.40187 11.0379 1.63178C11.8892 0.700477 13.2338 0.0683594 14.3934 0.0683594C14.4674 1.27561 13.9983 2.45961 13.1598 3.32193C12.4074 4.25323 11.1119 4.95433 9.91533 4.81636Z" fill="white"/>
</svg>
