<svg width="13" height="14" viewBox="0 0 13 14" fill="none" xmlns="http://www.w3.org/2000/svg">
<path d="M0.636209 1.76723L2.08679 3.21781L2.37628 3.5073C1.32652 4.32803 0.496251 5.41915 0 6.68203C1.10067 9.47502 3.81731 11.4537 6.99842 11.4537C7.98457 11.4537 8.92616 11.2628 9.78825 10.9161L10.0587 11.1865L11.9132 13.0442L12.7244 12.2362L1.44739 0.956055L0.636209 1.76723ZM4.15452 5.28235L5.13748 6.26531C5.10885 6.40211 5.08976 6.53888 5.08976 6.68203C5.08976 7.73498 5.94547 8.59068 6.99842 8.59068C7.14157 8.59068 7.27836 8.5716 7.41197 8.54297L8.39493 9.52593C7.97183 9.73588 7.50105 9.86313 6.99842 9.86313C5.24245 9.86313 3.81731 8.43799 3.81731 6.68203C3.81731 6.17942 3.94457 5.70861 4.15452 5.28235Z" fill="black"/>
</svg>
