<svg width="3" height="5" viewBox="0 0 3 5" fill="none" xmlns="http://www.w3.org/2000/svg">
<path d="M2.74518 1.89279C2.5866 1.33417 2.07844 0.952148 1.4982 0.952148C0.781005 0.952148 0.197159 1.53239 0.197159 2.25319C0.197159 2.83343 0.579182 3.34159 1.1378 3.50017V4.50928C1.1378 4.7075 1.29998 4.86968 1.4982 4.86968C1.69642 4.86968 1.8586 4.7075 1.8586 4.50928V3.50017C2.54696 3.30195 2.947 2.58115 2.74518 1.89279ZM1.4982 2.82982C1.17744 2.82982 0.917956 2.57034 0.917956 2.24958C0.917956 1.92883 1.17744 1.66934 1.4982 1.66934C1.81895 1.66934 2.07844 1.92883 2.07844 2.24958C2.07844 2.57034 1.81895 2.82982 1.4982 2.82982Z" fill="black"/>
</svg>
