<svg width="8" height="8" viewBox="0 0 8 8" fill="none" xmlns="http://www.w3.org/2000/svg">
<path d="M3.88599 7.70726C4.94482 7.70726 5.86157 7.3275 6.61084 6.57823C7.35986 5.82909 7.73975 4.91247 7.73975 3.85351C7.73975 2.79492 7.35999 1.87817 6.61072 1.12878C5.86145 0.37976 4.9447 0 3.88599 0C2.82703 0 1.9104 0.37976 1.16125 1.1289C0.412109 1.87805 0.0322266 2.79479 0.0322266 3.85351C0.0322266 4.91247 0.412109 5.82921 1.16125 6.57836C1.91064 7.32738 2.82739 7.70726 3.88599 7.70726V7.70726ZM1.82434 1.79187C2.39917 1.21704 3.07349 0.93762 3.88599 0.93762C4.69836 0.93762 5.3728 1.21704 5.94775 1.79187C6.52258 2.36682 6.80212 3.04125 6.80212 3.85351C6.80212 4.66601 6.52258 5.34032 5.94775 5.91527C5.3728 6.49022 4.69836 6.76964 3.88599 6.76964C3.07373 6.76964 2.39941 6.4901 1.82434 5.91527C1.24939 5.34044 0.969849 4.66601 0.969849 3.85351C0.969849 3.04125 1.24939 2.36682 1.82434 1.79187Z" fill="black"/>
</svg>
