<svg width="14" height="9" viewBox="0 0 14 9" fill="none" xmlns="http://www.w3.org/2000/svg">
<path d="M13.629 5.30309C13.6074 4.99133 13.5637 4.65124 13.4994 4.29211C13.4344 3.93029 13.3508 3.58825 13.2507 3.27563C13.1472 2.95251 13.0067 2.63342 12.8328 2.32763C12.6525 2.01025 12.4406 1.73388 12.2028 1.50647C11.9541 1.26855 11.6497 1.07727 11.2976 0.937744C10.9468 0.79895 10.558 0.728638 10.1421 0.728638C9.97876 0.728638 9.8208 0.795654 9.51575 0.994262C9.328 1.1167 9.1084 1.2583 8.86328 1.41492C8.65369 1.54846 8.36975 1.67358 8.01904 1.78686C7.67688 1.89758 7.32947 1.95373 6.98645 1.95373C6.64368 1.95373 6.29626 1.89758 5.95386 1.78686C5.60352 1.6737 5.31946 1.54858 5.11023 1.41504C4.86743 1.25989 4.64771 1.11829 4.45715 0.99414C4.15234 0.795532 3.99438 0.728516 3.83105 0.728516C3.41504 0.728516 3.02637 0.79895 2.67566 0.937866C2.32385 1.07715 2.01929 1.26843 1.77039 1.50659C1.53259 1.73413 1.32068 2.01037 1.1405 2.32763C0.966797 2.63342 0.826172 2.95239 0.722656 3.27575C0.622681 3.58837 0.539062 3.93029 0.474121 4.29211C0.409668 4.65075 0.366089 4.99096 0.344482 5.30346C0.323242 5.609 0.3125 5.92699 0.3125 6.24828C0.3125 7.08348 0.578003 7.75963 1.10156 8.25829C1.61865 8.75035 2.30273 8.99986 3.13489 8.99986H10.839C11.6709 8.99986 12.355 8.75035 12.8722 8.25829C13.3959 7.76 13.6614 7.08361 13.6614 6.24816C13.6613 5.92577 13.6504 5.60778 13.629 5.30309V5.30309ZM12.2257 7.57897C11.884 7.90416 11.4304 8.06224 10.8389 8.06224H3.13489C2.54321 8.06224 2.0896 7.90416 1.74805 7.57909C1.41296 7.26012 1.25012 6.8247 1.25012 6.24828C1.25012 5.94848 1.26001 5.65246 1.27979 5.36828C1.29907 5.08947 1.3385 4.7832 1.39697 4.45776C1.45471 4.13635 1.5282 3.83471 1.6156 3.56164C1.69946 3.2998 1.81384 3.04052 1.95569 2.79077C2.09106 2.55273 2.24683 2.34851 2.4187 2.18396C2.57947 2.03003 2.7821 1.90405 3.02087 1.80957C3.2417 1.72217 3.48987 1.67431 3.75928 1.66711C3.79211 1.68457 3.85059 1.71789 3.94531 1.77966C4.13806 1.90527 4.36023 2.04858 4.60583 2.20544C4.88269 2.38195 5.23938 2.54138 5.66553 2.67895C6.1012 2.81982 6.54553 2.89135 6.98657 2.89135C7.42761 2.89135 7.87207 2.81982 8.3075 2.67907C8.73401 2.54126 9.09058 2.38195 9.3678 2.2052C9.61914 2.04455 9.83508 1.90539 10.0278 1.77966C10.1226 1.71802 10.181 1.68457 10.2139 1.66711C10.4834 1.67431 10.7316 1.72217 10.9525 1.80957C11.1912 1.90405 11.3938 2.03015 11.5546 2.18396C11.7264 2.34839 11.8822 2.55261 12.0176 2.79089C12.1595 3.04052 12.274 3.29992 12.3578 3.56152C12.4453 3.83496 12.5189 4.13647 12.5765 4.45763C12.6349 4.78368 12.6744 5.09008 12.6937 5.3684V5.36864C12.7136 5.65172 12.7236 5.94762 12.7238 6.24828C12.7236 6.82482 12.5608 7.26012 12.2257 7.57897V7.57897Z" fill="black"/>
</svg>
